<?xml version="1.0" encoding="UTF-8"?>
<svg width="60px" height="60px" viewBox="0 0 60 60" version="1.1" xmlns="http://www.w3.org/2000/svg" xmlns:xlink="http://www.w3.org/1999/xlink">
    <!-- Generator: Sketch 61.2 (89653) - https://sketch.com -->
    <title>icon/insta</title>
    <desc>Created with Sketch.</desc>
    <g id="Assets" stroke="none" stroke-width="1" fill="none" fill-rule="evenodd">
        <g id="icon/insta" transform="translate(0.840000, 0.240000)" fill="#30226D" fill-rule="nonzero">
            <circle id="Oval" cx="29.28" cy="29.76" r="5.28"></circle>
            <path d="M35.88,16.8 L22.68,16.8 C20.76,16.8 19.08,17.4 18,18.48 C16.92,19.56 16.32,21.24 16.32,23.16 L16.32,36.36 C16.32,38.28 16.92,39.96 18.12,41.16 C19.32,42.24 20.88,42.84 22.8,42.84 L35.88,42.84 C37.8,42.84 39.48,42.24 40.56,41.16 C41.76,40.08 42.36,38.4 42.36,36.48 L42.36,23.28 C42.36,21.36 41.76,19.8 40.68,18.6 C39.48,17.4 37.92,16.8 35.88,16.8 Z M29.28,37.92 C24.72,37.92 21.12,34.2 21.12,29.76 C21.12,25.2 24.84,21.6 29.28,21.6 C33.72,21.6 37.56,25.2 37.56,29.76 C37.56,34.32 33.84,37.92 29.28,37.92 Z M37.8,23.16 C36.72,23.16 35.88,22.32 35.88,21.24 C35.88,20.16 36.72,19.32 37.8,19.32 C38.88,19.32 39.72,20.16 39.72,21.24 C39.72,22.32 38.88,23.16 37.8,23.16 Z" id="Shape"></path>
            <path d="M29.52,-1.77635684e-14 C13.2,-1.77635684e-14 3.19744231e-14,13.2 3.19744231e-14,29.52 C3.19744231e-14,45.84 13.2,59.04 29.52,59.04 C45.84,59.04 59.04,45.84 59.04,29.52 C59.16,13.2 45.84,-1.77635684e-14 29.52,-1.77635684e-14 Z M45.24,36.48 C45.24,39.24 44.28,41.64 42.6,43.32 C40.92,45 38.52,45.84 35.88,45.84 L22.8,45.84 C20.16,45.84 17.76,45 16.08,43.32 C14.28,41.64 13.44,39.24 13.44,36.48 L13.44,23.28 C13.44,17.76 17.16,13.92 22.8,13.92 L36,13.92 C38.76,13.92 41.04,14.88 42.72,16.56 C44.4,18.24 45.24,20.52 45.24,23.28 L45.24,36.48 Z" id="Shape"></path>
        </g>
    </g>
</svg>