<?xml version="1.0" encoding="UTF-8"?>
<svg width="60px" height="60px" viewBox="0 0 60 60" version="1.1" xmlns="http://www.w3.org/2000/svg" xmlns:xlink="http://www.w3.org/1999/xlink">
    <!-- Generator: Sketch 61.2 (89653) - https://sketch.com -->
    <title>icon/yelp</title>
    <desc>Created with Sketch.</desc>
    <g id="Assets" stroke="none" stroke-width="1" fill="none" fill-rule="evenodd">
        <g id="icon/yelp" fill="#30226D" fill-rule="nonzero">
            <path d="M30,0 C46.5685433,0 60,13.4314567 60,30 C60,46.5685433 46.5685433,60 30,60 C13.4314567,60 0,46.5685433 0,30 C0,13.4314567 13.4314567,0 30,0 Z M27.6605976,35.8243222 L21.5498283,42.5512453 L21.4455486,42.7034356 C21.2438714,43.0130712 20.8327469,43.727829 20.9809822,44.210476 C21.1632899,44.8023991 21.4655976,45.0977837 21.8936745,45.3043222 L28.0309822,47.2416299 L28.1916595,47.268461 C28.4414688,47.3039847 28.936092,47.3494321 29.3382899,47.2323991 C30.1379053,47.0016299 29.9902129,45.7485529 29.9902129,45.7485529 L30.1287307,36.6400914 C30.1298283,36.6412453 30.0998283,35.7631683 29.382136,35.3927837 C28.5986745,34.9900914 27.6605976,35.8243222 27.6605976,35.8243222 Z M33.492136,33.9481683 C32.8690591,34.5758606 33.3963668,35.7193222 33.3963668,35.7193222 L38.0867514,43.5516299 L38.2174425,43.7129881 C38.4652129,44.0034328 39.023386,44.5843222 39.5244437,44.5843222 C40.1948283,44.5843222 40.857136,44.0339376 40.857136,44.0339376 L44.5655976,38.7320145 C44.5655976,38.7320145 44.9394437,38.0639376 44.9477459,37.4777837 C44.9613668,36.6447068 43.7048283,36.4162453 43.7048283,36.4162453 L34.9252129,33.5973991 C34.9252129,33.5973991 34.0655976,33.3700914 33.492136,33.9481683 Z M16.4198283,26.3766299 C15.9894437,26.6316299 15.6075206,27.0908606 15.5705976,27.4993222 L15.0617514,33.7670145 C15.0617514,33.7670145 14.9855976,34.8527837 15.267136,35.3466299 C15.6663668,36.0470145 16.977136,35.5600914 16.977136,35.5600914 L26.1029053,33.5431683 C26.457136,33.3031683 27.0790591,33.2823991 27.1136745,32.0097068 C27.1390591,31.0485529 25.9586745,30.470476 25.9586745,30.470476 L18.1413668,26.5208606 L17.9718047,26.4583101 C17.6291709,26.3409724 16.8504166,26.1216299 16.4198283,26.3766299 Z M38.0269252,20.7242068 L33.0709822,28.5250914 C33.0709822,28.5239376 32.6336745,29.2993222 33.0479053,29.9997068 C33.4979053,30.7612453 34.7359822,30.5397068 34.7359822,30.5397068 L43.4959822,27.9793222 L43.6073176,27.9302336 C43.9078376,27.7915202 44.7222321,27.3723991 44.8609822,26.8473991 C45.0282899,26.1989376 44.6636745,25.4189376 44.6636745,25.4189376 L40.4775206,20.4885529 C40.4775206,20.4885529 40.1152129,19.8643222 39.3617514,19.8020145 C38.583987,19.7349472 38.0861204,20.6140562 38.0269252,20.7242068 Z M27.4713668,10.5147068 L20.1215514,13.2474021 C19.9271514,13.326676 19.4115207,13.5723991 19.1152129,14.0477837 C18.5855976,14.8900914 19.6529053,16.1235529 19.6529053,16.1235529 L27.2129053,26.4273991 L27.2796644,26.4891403 C27.4827136,26.6669839 28.1270229,27.1556797 28.9090591,26.9627837 C29.9405976,26.7089376 30.1044437,25.2100914 30.1044437,25.2100914 L30.0340591,12.7381683 L30.0098053,12.5584758 C29.9447431,12.140265 29.7327838,11.1123991 29.187136,10.7835529 C28.1036745,10.1258606 27.7817514,10.4697068 27.4713668,10.5147068 Z" id="Shape"></path>
        </g>
    </g>
</svg>