<?xml version="1.0" encoding="UTF-8"?>
<svg width="440px" height="45px" viewBox="0 0 440 45" version="1.1" xmlns="http://www.w3.org/2000/svg" xmlns:xlink="http://www.w3.org/1999/xlink">
    <!-- Generator: Sketch 63.1 (92452) - https://sketch.com -->
    <title>philly-inquirer-logo</title>
    <desc>Created with Sketch.</desc>
    <g id="philly-inquirer-logo" stroke="none" stroke-width="1" fill="none" fill-rule="evenodd">
        <g id="The-Philadelphia-Inquirer-Logo" fill="#211E1E" fill-rule="nonzero">
            <path d="M31.5242509,1.61012993 L30.6584944,1.19956379 C29.7391858,3.20776154 27.7309875,4.35020325 25.5353572,4.35020325 C20.1444603,4.35020325 16.9491939,1.84218726 11.1477319,1.84218726 C7.80966024,1.84218726 2.82932818,4.80539316 0.223133032,10.5176017 L1.1335165,10.8835441 C2.74007515,7.64364792 4.97140639,6.36732575 7.12241026,6.36732575 C9.68397844,6.36732575 12.1919953,6.82252023 14.6643105,7.45621893 C8.72004325,9.79465088 2.05282518,14.5875503 2.05282518,23.727084 C2.05282518,32.1347421 8.86284846,37.8023268 15.6728722,37.8023268 C23.3486524,37.8023268 27.4543023,32.6434851 29.8373644,28.0737182 L29.1054875,27.7077804 C27.9630458,29.4839209 26.7759776,31.1351056 24.1251559,32.3667994 L24.1251559,8.3755235 C27.552481,7.23308179 29.6053057,4.85894625 31.5242509,1.61012993 L31.5242509,1.61012993 Z M19.2787038,8.65220917 C18.6807069,9.01814696 18.0470091,9.47334143 16.8599404,10.3837258 C15.0748753,11.7135965 14.3429988,12.3026669 14.3429988,15.1409216 C14.3429988,25.235468 14.3429988,17.372252 14.3429988,27.5649752 C14.3429988,30.8584199 14.1109401,30.9030482 12.8346188,31.8134326 C10.3176767,30.1265443 7.94353978,26.877728 7.94353978,21.5314572 C7.94353978,15.5514878 10.5497354,10.4283496 15.8067522,7.77752838 C17.0384469,8.14346617 18.3147687,8.46478018 19.2787038,8.65220917 Z M23.0273407,32.7327418 C21.8402725,33.1433033 20.1890873,33.3218121 18.5468274,33.3218121 C16.7171352,33.3218121 15.1641287,33.0540512 13.6111218,32.2775473 C14.2983718,31.8669811 15.4408135,31.3136144 17.1723269,30.0372922 C19.0020186,28.6627932 19.6892691,28.0737182 19.6892691,25.235468 C19.6892691,15.1409216 19.6892691,22.9952084 19.6892691,12.8024851 C19.6892691,10.1070401 19.8231486,9.47334143 20.2872656,8.83071797 C21.063769,8.83071797 22.2954638,8.83071797 23.0273407,8.59866064 L23.0273407,32.7327418 Z" id="path9437"></path>
            <path d="M49.8961417,31.8134326 L49.3427703,31.268986 C48.9322088,31.6795522 48.29851,32.3667994 47.8433156,32.3667994 C47.0132631,32.3667994 46.1028787,31.268986 46.1028787,31.268986 L46.1028787,17.693566 L48.2538817,15.5068594 L47.6558866,14.9534927 L45.9689983,16.6493011 L41.3992314,12.6686092 L41.1225462,12.6686092 L36.1422146,17.372252 L36.0975863,17.3276053 L36.0975863,5.03743221 C37.195401,6.00136511 37.9183523,6.17987392 39.2928527,6.17987392 C41.4438561,6.17987392 43.8626237,3.48442437 45.3710032,0.87822693 L44.639123,0.512289142 C43.2200002,2.57403999 42.3096158,2.57403999 40.7566062,2.57403999 C39.9801027,2.57403999 38.150411,1.79753606 37.6059662,1.06566049 L37.2846545,1.06566049 C37.2846545,1.06566049 33.6252707,3.98424261 30.019439,6.00136511 L30.019439,6.50118336 C30.019439,6.50118336 31.0190755,6.63506382 31.0190755,7.18843517 L31.0190755,31.8669583 C31.0190755,32.1793476 30.153319,32.5452854 30.153319,32.5452854 L30.153319,32.9558515 L34.7677124,36.6152339 L35.0443976,36.6152339 L38.6502293,32.9558515 L38.5609758,32.4560332 C37.0525958,32.4560332 36.1868393,31.3135915 36.0975863,31.0815296 L36.0975863,18.7913565 L38.284291,16.8724109 C39.5249114,17.6489148 41.0332914,19.2019226 41.0332914,19.2019226 L41.0332914,31.9115866 C41.0332914,32.3667765 40.4352944,32.5899137 40.4352944,32.5899137 L40.4352944,33.0094 L44.7730035,36.6152339 L45.0496892,36.6152339 L49.8961417,31.8134098 L49.8961417,31.8134326 Z" id="path9439"></path>
            <path d="M65.4815462,20.6657012 L65.4815462,20.2997588 L60.0460234,12.4454721 L59.492652,12.4454721 L50.3531183,19.0234412 L50.3531183,19.4340028 C50.3531183,19.4340028 51.3170558,19.7999406 51.3170558,20.1212546 L51.3170558,30.6263626 C51.3170558,30.9030482 50.4423705,31.1351056 50.4423705,31.1351056 L50.4423705,31.5456717 L56.9310829,36.6152568 L57.2970207,36.6152568 L64.4283566,30.3050531 L63.7857332,29.5820977 L59.9478419,32.7773655 C58.9482054,32.1347421 56.3866363,29.9391108 56.3866363,29.9391108 L56.3866363,26.3332814 L65.4815462,20.6657012 L65.4815462,20.6657012 Z M60.8225273,22.406138 L56.3866363,25.2800918 L56.3866363,16.8278099 L56.7972025,16.5064959 L60.8225273,22.406138 Z" id="path9441"></path>
            <path d="M109.802929,13.2666044 C109.802929,7.87570525 102.992907,3.35056675 102.359208,0.699745547 L101.805837,0.699745547 C101.805837,0.699745547 96.914756,4.08244233 94.0408022,6.17989676 C92.255737,7.50976746 91.4346093,8.33089972 91.4346093,11.1602252 C91.4346093,21.3083247 91.4346093,39.3107063 91.4346093,39.3107063 L91.1579237,39.4445868 C90.5688533,38.6234545 89.8816015,37.623818 88.7391598,36.7491372 C88.7391598,32.0901183 88.7391598,15.8727972 88.7391598,7.18845802 C88.7391598,4.39483159 88.1857884,4.12707068 86.409648,2.79719541 C85.9544581,2.43125762 84.6692112,1.56550158 84.6692112,1.56550158 L84.3478972,1.56550158 C83.6695747,2.06531983 82.527133,2.43125762 81.5185717,2.43125762 C79.9209356,2.43125762 78.6892417,2.386611 77.2701143,0.289179415 L76.6274909,0.655117204 C77.7253088,3.76113289 79.6888782,6.41195409 83.392889,6.41195409 L83.392889,12.1241626 C83.0715796,12.1241626 82.6610134,12.1241626 82.2504473,12.1241626 C79.7781303,12.1241626 77.7253088,15.0873685 77.7253088,17.5150572 L78.4125561,17.5597038 C78.8231222,16.0959526 80.0994444,15.5961344 81.5185717,15.5961344 C82.3843278,15.5961344 83.0269512,15.640781 83.392889,15.819267 L83.392889,19.6571537 C83.1162034,19.6571537 82.7502656,19.6571537 82.3843278,19.6571537 C79.9209356,19.6571537 77.8591893,22.6292889 77.8591893,25.0569775 L78.5464365,25.1016241 C78.9570026,23.6378684 80.2422496,23.1380502 81.6524522,23.1380502 C82.4289561,23.1380502 83.0715796,23.1826968 83.392889,23.316559 L83.392889,35.3389712 C79.1444362,35.6513559 76.9934287,40.0872468 76.9934287,42.4613824 L77.6806805,42.5595592 C78.2251271,40.6406136 79.4657457,39.1322341 82.3396994,39.1322341 C85.543892,39.1322341 87.4092845,41.6402501 88.1411647,42.5595592 L88.6052793,42.5595592 C88.6052793,42.5595592 93.6748644,38.9001768 98.1107508,36.383236 L98.1107508,35.9280415 C98.1107508,35.9280415 96.8701322,35.6513559 96.8701322,35.3389712 C96.8701322,35.3389712 96.8701322,17.6043504 96.8701322,8.37556006 C96.8701322,5.26954894 97.6912599,5.08211539 98.3338834,4.58229714 C98.7444495,5.68011508 99.387073,6.95643724 100.208205,8.05425061 L100.208205,23.5486163 C99.0657635,23.8163772 97.744813,24.4590007 97.744813,26.1012606 C97.744813,27.4757597 98.7890778,28.4843209 100.342081,29.162648 L100.984705,28.9395108 C100.940058,28.7074535 100.895452,28.4843209 100.895452,28.2968874 C100.895452,25.9673802 101.439899,24.691058 102.948279,23.503988 C106.330975,20.7996136 109.802929,18.014912 109.802929,13.2666409 L109.802929,13.2666044 Z M105.322414,17.2829998 C105.322414,20.0230777 103.867588,22.1294524 101.484523,23.2272657 C101.395271,23.2719123 101.350647,23.2719123 101.26139,23.3165224 L101.26139,9.33053622 L101.350647,9.2412841 C103.269588,11.847477 105.322414,14.2216125 105.322414,17.2829998 Z" id="path9443"></path>
            <path d="M131.055914,31.8134326 L130.502542,31.268986 C130.091981,31.6795522 129.458282,32.3667994 129.003088,32.3667994 C128.173035,32.3667994 127.262651,31.268986 127.262651,31.268986 L127.262651,17.693566 L129.413654,15.5068594 L128.815659,14.9534927 L127.12877,16.6493011 L122.559003,12.6686092 L122.282318,12.6686092 L117.301989,17.372252 L117.257343,17.3276053 L117.257343,5.03743221 C118.355156,6.00136511 119.078107,6.17987392 120.45261,6.17987392 C122.603613,6.17987392 125.022377,3.48442437 126.530757,0.87822693 L125.798881,0.512289142 C124.379754,2.57403999 123.469369,2.57403999 121.916362,2.57403999 C121.139858,2.57403999 119.310169,1.79753606 118.765722,1.06566049 L118.444413,1.06566049 C118.444413,1.06566049 114.785026,3.98424261 111.179196,6.00136511 L111.179196,6.50118336 C111.179196,6.50118336 112.178833,6.63506382 112.178833,7.18843517 L112.178833,31.8669583 C112.178833,32.1793476 111.313077,32.5452854 111.313077,32.5452854 L111.313077,32.9558515 L115.927467,36.6152339 L116.204153,36.6152339 L119.809987,32.9558515 L119.72073,32.4560332 C118.212351,32.4560332 117.346595,31.3135915 117.257343,31.0815296 L117.257343,18.7913565 L119.444049,16.8724109 C120.684668,17.6489148 122.193047,19.2019226 122.193047,19.2019226 L122.193047,31.9115866 C122.193047,32.3667765 121.595052,32.5899137 121.595052,32.5899137 L121.595052,33.0094 L125.932757,36.6152339 L126.209443,36.6152339 L131.055914,31.8134098 L131.055914,31.8134326 Z" id="path9445"></path>
            <path d="M139.276138,6.63508667 L139.276138,6.22452054 C137.544626,4.85894625 135.848813,2.84182375 135.848813,2.84182375 L135.438251,2.84182375 C134.072673,4.85894625 132.153732,6.26914888 132.153732,6.26914888 L132.153732,6.67971501 C133.751363,7.92033359 135.581057,9.97315968 135.581057,9.97315968 L135.991618,9.97315968 C137.357193,8.14346617 139.276138,6.63508667 139.276138,6.63508667 Z M142.069765,31.9562378 L141.614575,31.3582381 C141.204009,31.7241759 140.606013,32.3221756 140.240076,32.3221756 C139.37432,32.3221756 138.410382,31.268986 138.410382,31.268986 L138.410382,17.2829998 L140.561385,15.18555 L139.96339,14.5429265 L138.276502,16.2298103 L134.251181,12.6239809 L133.98342,12.6239809 L129.779591,16.9170621 L130.324038,17.5150572 L131.055914,16.8278099 C132.109103,17.5150572 133.340797,18.7913793 133.340797,18.7913793 L133.340797,31.8669811 C133.340797,32.3221756 132.519669,32.5453082 132.519669,32.5453082 L132.519669,32.9558743 L137.26794,36.6152568 L137.544626,36.6152568 L142.069765,31.9562378 L142.069765,31.9562378 Z" id="path9447"></path>
            <path d="M152.756969,32.04549 L152.212508,31.4474948 C151.801942,31.8134326 151.346752,32.1793704 150.98081,32.1793704 C150.338186,32.1793704 149.240373,31.2243577 149.240373,31.2243577 L149.240373,3.66295145 C149.240373,2.47588596 150.891558,1.28881591 150.891558,1.28881591 L150.382815,0.655117204 C150.382815,0.655117204 145.491738,4.21632279 142.296471,6.13526842 L142.61778,6.867144 L144.12616,6.09064008 L144.170806,6.17989676 L144.170806,31.8669811 C144.170806,32.3221756 143.394302,32.5453082 143.394302,32.5453082 L143.394302,32.9558743 L148.09795,36.6152568 L148.374635,36.6152568 L152.756969,32.04549 L152.756969,32.04549 Z" id="path9449"></path>
            <path d="M171.632231,32.0901183 L171.177041,31.5010434 C170.766475,31.8669811 170.266656,32.3221756 169.85609,32.3221756 C168.981409,32.3221756 167.838968,30.9030482 167.838968,30.9030482 L167.838968,17.2383761 L169.900718,15.2748021 L169.302719,14.6321786 L167.838968,15.9620539 L164.233134,12.6686092 L163.956453,12.6686092 C163.090692,13.8110509 160.895065,15.0873685 160.163185,15.0873685 C158.842239,15.0873685 157.512364,14.3108692 157.057174,12.6686092 L156.646608,12.6686092 L153.585221,17.0598673 L153.585221,17.2383761 C154.085039,18.1576806 154.906171,19.389379 156.780488,19.389379 C158.333496,19.389379 159.618743,17.372252 160.484499,16.5064959 L162.769383,18.2469373 L162.769383,21.3529484 C157.744426,21.7188862 153.263911,24.5482162 153.263911,29.7159782 C153.263911,33.3218121 155.504166,35.7495008 158.37812,36.6152568 L158.744062,36.6152568 L162.68013,33.0540512 L162.769383,33.0540512 L166.696526,36.6152568 L166.973212,36.6152568 L171.632231,32.0901183 L171.632231,32.0901183 Z M162.769383,31.9562378 C162.769383,31.9562378 162.216011,32.5453082 160.984317,32.5453082 C159.520562,32.5453082 158.333496,30.5371105 158.333496,27.5649752 C158.333496,24.5928446 159.841876,22.8613279 162.769383,22.3079612 L162.769383,31.9562378 Z" id="path9451"></path>
            <path d="M189.911298,15.2748021 L189.322228,14.6321786 L187.626414,16.2833633 C185.252279,13.7217943 176.344803,4.12707068 174.104548,0.967506465 L173.917114,0.967506465 C173.461924,1.47624947 173.00673,2.20812505 173.00673,2.79719541 C173.00673,3.52907556 173.095986,4.0288938 173.649353,4.71614104 C171.908916,4.85894625 169.713285,6.09064008 169.713285,6.09064008 L169.713285,6.59045833 C171.453726,6.59045833 172.506911,7.27771013 173.417296,8.23271828 C174.470485,9.33053622 176.71074,11.7582249 178.718938,14.0431083 L171.998168,17.9702516 L171.998168,18.4254416 C171.998168,18.4254416 172.872849,18.7467556 172.872849,19.068065 L172.872849,30.40323 C172.872849,30.7245394 171.998168,30.9476766 171.998168,30.9476766 L171.998168,31.3582381 L178.763566,36.6152568 L179.40619,36.6152568 L188.813485,30.3050531 L188.813485,29.894487 C188.813485,29.894487 187.76922,29.6267261 187.76922,29.3054166 L187.76922,17.4258051 L189.911298,15.2748021 L189.911298,15.2748021 Z M182.601458,32.8666176 L182.146263,33.1433033 L177.942434,29.6267261 L177.942434,16.5064959 C177.942434,15.6853682 178.718938,15.1409216 179.361562,14.7303555 C181.280507,16.8278099 182.601458,18.4700699 182.601458,18.4700699 L182.601458,32.8666176 L182.601458,32.8666176 Z" id="path9453"></path>
            <path d="M205.909051,20.6657012 L205.909051,20.2997588 L200.473528,12.4454721 L199.920157,12.4454721 L190.780623,19.0234412 L190.780623,19.4340028 C190.780623,19.4340028 191.74456,19.7999406 191.74456,20.1212546 L191.74456,30.6263626 C191.74456,30.9030482 190.86988,31.1351056 190.86988,31.1351056 L190.86988,31.5456717 L197.358592,36.6152568 L197.72453,36.6152568 L204.855866,30.3050531 L204.213242,29.5820977 L200.375351,32.7773655 C199.375715,32.1347421 196.814146,29.9391108 196.814146,29.9391108 L196.814146,26.3332814 L205.909051,20.6657012 L205.909051,20.6657012 Z M201.250032,22.406138 L196.814146,25.2800918 L196.814146,16.8278099 L197.224712,16.5064959 L201.250032,22.406138 Z" id="path9455"></path>
            <path d="M216.276728,32.04549 L215.732267,31.4474948 C215.321701,31.8134326 214.866511,32.1793704 214.500569,32.1793704 C213.857945,32.1793704 212.760132,31.2243577 212.760132,31.2243577 L212.760132,3.66295145 C212.760132,2.47588596 214.411317,1.28881591 214.411317,1.28881591 L213.902574,0.655117204 C213.902574,0.655117204 209.011498,4.21632279 205.81623,6.13526842 L206.137539,6.867144 L207.645919,6.09064008 L207.690565,6.17989676 L207.690565,31.8669811 C207.690565,32.3221756 206.914061,32.5453082 206.914061,32.5453082 L206.914061,32.9558743 L211.617709,36.6152568 L211.894394,36.6152568 L216.276728,32.04549 L216.276728,32.04549 Z" id="path9457"></path>
            <path d="M236.071299,15.6853682 L235.473304,15.0427448 L233.786415,16.7385578 L229.216648,12.6686092 L228.939963,12.6686092 L224.459448,16.8724337 C223.816825,15.1409216 220.121743,12.6239809 220.121743,12.6239809 L219.845057,12.6239809 L215.319914,17.4704334 L215.819733,18.0148754 C216.239224,17.6489376 216.828294,16.9170621 217.283488,16.9170621 C217.926112,16.9170621 219.023925,17.9702516 219.023925,17.9702516 L219.023925,31.5010434 C216.872922,32.4114277 215.551976,34.3303734 215.551976,36.6598851 L216.096418,36.7491372 C216.64979,35.0622489 217.926112,34.9283685 219.023925,34.8301916 L219.023925,42.7826552 C219.023925,43.5591592 218.015364,44.3802914 218.015364,44.3802914 L218.336678,44.9782865 C218.336678,44.9782865 221.630123,42.6487748 225.833952,39.8640731 L225.512638,39.1768259 L224.09351,39.8640731 L224.048909,39.8105246 L224.048909,35.7048724 L224.09351,35.6513193 C224.914643,35.8833812 226.155261,36.6152568 226.155261,36.6152568 L226.699708,36.6152568 L234.786052,31.0369287 L234.786052,30.5817342 C234.786052,30.5817342 233.920296,30.3050531 233.920296,29.9926639 L233.920296,17.7917428 L236.071299,15.6853682 L236.071299,15.6853682 Z M228.850711,33.1879317 L228.440145,33.419989 C226.655079,31.8669811 225.557266,31.5456717 224.09351,31.1351056 L224.09351,18.4254416 L226.057084,16.8278099 C227.154898,17.4704334 228.850711,19.1573171 228.850711,19.1573171 L228.850711,33.1879317 L228.850711,33.1879317 Z" id="path9459"></path>
            <path d="M256.678114,31.8134326 L256.12472,31.268986 C255.714154,31.6795522 255.080459,32.3667994 254.625265,32.3667994 C253.795213,32.3667994 252.884828,31.268986 252.884828,31.268986 L252.884828,17.693566 L255.035831,15.5068594 L254.437836,14.9534927 L252.750948,16.6493011 L248.181181,12.6686092 L247.904495,12.6686092 L242.924162,17.372252 L242.879561,17.3276053 L242.879561,5.03743221 C243.977375,6.00136511 244.700325,6.17987392 246.074825,6.17987392 C248.225832,6.17987392 250.644591,3.48442437 252.152975,0.87822693 L251.421095,0.512289142 C250.001968,2.57403999 249.091588,2.57403999 247.53858,2.57403999 C246.762076,2.57403999 244.932383,1.79753606 244.387941,1.06566049 L244.066627,1.06566049 C244.066627,1.06566049 240.407244,3.98424261 236.801415,6.00136511 L236.801415,6.50118336 C236.801415,6.50118336 237.801051,6.63506382 237.801051,7.18843517 L237.801051,31.8669583 C237.801051,32.1793476 236.935291,32.5452854 236.935291,32.5452854 L236.935291,32.9558515 L241.549686,36.6152339 L241.826372,36.6152339 L245.432201,32.9558515 L245.342949,32.4560332 C243.834569,32.4560332 242.968813,31.3135915 242.879561,31.0815296 L242.879561,18.7913565 L245.066263,16.8724109 C246.306886,17.6489148 247.815266,19.2019226 247.815266,19.2019226 L247.815266,31.9115866 C247.815266,32.3667765 247.217266,32.5899137 247.217266,32.5899137 L247.217266,33.0094 L251.554976,36.6152339 L251.831661,36.6152339 L256.678114,31.8134098 L256.678114,31.8134326 Z" id="path9461"></path>
            <path d="M264.900102,6.63508667 L264.900102,6.22452054 C263.168586,4.85894625 261.472777,2.84182375 261.472777,2.84182375 L261.062211,2.84182375 C259.696637,4.85894625 257.777691,6.26914888 257.777691,6.26914888 L257.777691,6.67971501 C259.375323,7.92033359 261.205016,9.97315968 261.205016,9.97315968 L261.615582,9.97315968 C262.981157,8.14346617 264.900102,6.63508667 264.900102,6.63508667 Z M267.693729,31.9562378 L267.238534,31.3582381 C266.827973,31.7241759 266.229973,32.3221756 265.864035,32.3221756 C264.998279,32.3221756 264.034346,31.268986 264.034346,31.268986 L264.034346,17.2829998 L266.185349,15.18555 L265.58735,14.5429265 L263.900466,16.2298103 L259.875141,12.6239809 L259.607385,12.6239809 L255.403556,16.9170621 L255.947998,17.5150572 L256.679878,16.8278099 C257.733063,17.5150572 258.964761,18.7913793 258.964761,18.7913793 L258.964761,31.8669811 C258.964761,32.3221756 258.143629,32.5453082 258.143629,32.5453082 L258.143629,32.9558743 L262.891905,36.6152568 L263.168586,36.6152568 L267.693729,31.9562378 L267.693729,31.9562378 Z" id="path9463"></path>
            <path d="M286.654692,32.0901183 L286.199498,31.5010434 C285.788932,31.8669811 285.289113,32.3221756 284.878552,32.3221756 C284.003866,32.3221756 282.861425,30.9030482 282.861425,30.9030482 L282.861425,17.2383761 L284.923176,15.2748021 L284.32518,14.6321786 L282.861425,15.9620539 L279.255595,12.6686092 L278.97891,12.6686092 C278.113154,13.8110509 275.917522,15.0873685 275.185647,15.0873685 C273.864696,15.0873685 272.534826,14.3108692 272.079631,12.6686092 L271.66907,12.6686092 L268.607682,17.0598673 L268.607682,17.2383761 C269.1075,18.1576806 269.928628,19.389379 271.80295,19.389379 C273.355953,19.389379 274.6412,17.372252 275.506956,16.5064959 L277.79184,18.2469373 L277.79184,21.3529484 C272.766883,21.7188862 268.286368,24.5482162 268.286368,29.7159782 C268.286368,33.3218121 270.526628,35.7495008 273.400582,36.6152568 L273.766519,36.6152568 L277.702588,33.0540512 L277.79184,33.0540512 L281.718983,36.6152568 L281.995669,36.6152568 L286.654692,32.0901183 L286.654692,32.0901183 Z M277.79184,31.9562378 C277.79184,31.9562378 277.238473,32.5453082 276.006774,32.5453082 C274.543023,32.5453082 273.355953,30.5371105 273.355953,27.5649752 C273.355953,24.5928446 274.864333,22.8613279 277.79184,22.3079612 L277.79184,31.9562378 Z" id="path9465"></path>
            <path d="M318.189652,1.24419214 L317.779086,0.655117204 C317.779086,0.655117204 313.298572,3.76113289 310.094379,5.76933063 L310.094379,6.26914888 C310.094379,6.26914888 311.147569,6.50120621 311.147569,6.867144 L311.147569,35.0176252 L310.005127,35.7941245 C309.460685,35.383563 308.362867,34.5624307 308.362867,33.1433033 C308.362867,33.1433033 308.362867,17.372252 308.362867,7.23308179 C308.362867,4.44838012 307.764872,4.12707068 305.988731,2.79719541 C305.524612,2.43125762 304.248295,1.56550158 304.248295,1.56550158 L303.926981,1.56550158 C303.239729,2.06531983 302.15084,2.52050974 301.142279,2.52050974 C299.544647,2.52050974 298.402206,2.38663385 297.07233,0.289179415 L296.438632,0.655117204 C297.482896,3.76113289 299.312585,6.45658244 303.016596,6.45658244 L303.016596,11.6600434 C302.695287,11.6600434 302.373973,11.6600434 301.963411,11.6600434 C299.500019,11.6600434 297.393644,14.6321786 297.393644,17.0598673 L298.036268,17.1045139 C298.446829,15.6407582 299.812404,15.1409399 301.231531,15.1409399 C302.097287,15.1409399 302.695287,15.1855865 303.016596,15.3194487 L303.016596,19.2019638 C302.73991,19.2019638 302.463229,19.2019638 302.097287,19.2019638 C299.633899,19.2019638 297.52752,22.174099 297.52752,24.5928629 L298.170144,24.6464114 C298.58071,23.1826602 299.955209,22.6739172 301.374336,22.6739172 C302.097287,22.6739172 302.650658,22.7274658 303.016596,22.8167224 L303.016596,29.6267444 C303.016596,29.939129 301.918783,30.2604431 301.918783,30.2604431 L301.918783,30.7245577 C304.614232,32.2775656 308.13081,35.5620855 309.00549,36.4813946 L307.354306,37.4364028 C304.98017,35.428205 302.829167,32.7773838 298.902024,32.7773838 C293.832439,32.7773838 292.279431,37.7577168 292.279431,40.408538 L292.957753,40.4531846 C293.421873,38.4449869 294.198376,36.891979 297.215135,36.891979 C300.133718,36.891979 303.105853,40.0872468 303.882352,40.9530029 L304.435724,40.9530029 C304.435724,40.9530029 313.3432,34.7409761 317.779086,32.2240307 L317.779086,31.7242125 C317.779086,31.7242125 316.538468,31.4475314 316.538468,31.081589 L316.538468,3.35060331 C316.538468,2.52054629 318.189652,1.2442287 318.189652,1.2442287 L318.189652,1.24419214 Z" id="path9467"></path>
            <path d="M340.577941,32.04549 L340.078123,31.5010434 C339.667557,31.8669811 339.158814,32.3667994 338.748247,32.3667994 C337.927115,32.3667994 337.016735,31.268986 337.016735,31.268986 L337.016735,17.693566 L339.158814,15.5961161 L338.569739,14.9534927 L336.87393,16.6493011 L332.304163,12.6686092 L332.036402,12.6686092 L327.466636,16.9170621 C326.645503,15.1409216 323.030749,12.6686092 323.030749,12.6686092 L322.754063,12.6686092 L318.737668,17.0598673 L319.192858,17.6489376 C319.603424,17.2829998 319.924733,17.0152389 320.290671,17.0152389 C320.933295,17.0152389 321.932931,18.0148754 321.932931,18.0148754 L321.932931,31.7688043 C321.932931,32.0901183 321.022551,32.4560561 321.022551,32.4560561 L321.022551,32.8666176 L325.869004,36.6152568 L326.13676,36.6152568 L329.751519,32.6881134 L329.474833,32.1793704 C329.296329,32.3221756 329.064267,32.4114277 328.698329,32.4114277 C328.153887,32.4114277 327.011446,31.3582381 327.011446,31.3582381 L327.011446,18.5682468 L329.064267,16.8278099 C330.206709,17.4704334 331.938225,19.1573171 331.938225,19.1573171 L331.938225,31.8669811 C331.938225,32.3221756 331.349151,32.5453082 331.349151,32.5453082 L331.349151,32.9558743 L335.874294,36.6152568 L336.150979,36.6152568 L340.577941,32.04549 L340.577941,32.04549 Z" id="path9469"></path>
            <path d="M358.767752,15.3194304 L358.080504,14.6321786 L356.161559,16.3726155 L351.136597,12.6686092 L350.681407,12.6686092 L340.89925,18.8360077 L340.89925,19.2465738 C340.89925,19.2465738 341.907812,19.5678833 341.907812,19.8891973 L341.907812,30.8137961 C341.907812,31.1351056 340.988502,31.3582381 340.988502,31.3582381 L340.988502,31.7688043 L346.745339,36.6152568 L347.022025,36.6152568 L351.547164,32.04549 L351.636416,32.04549 L351.636416,42.7826552 C351.636416,43.5591592 350.636779,44.3802914 350.636779,44.3802914 L350.993792,44.9782865 C350.993792,44.9782865 354.376494,42.6487748 358.580323,39.8640731 L358.169756,39.1768259 L356.759554,39.8640731 L356.706001,39.8105246 L356.706001,17.1044956 L358.767752,15.3194304 L358.767752,15.3194304 Z M351.636416,30.6709909 L349.538966,32.5453082 C348.575033,31.9562378 346.977397,30.3586017 346.977397,30.3586017 L346.977397,16.5064959 L347.343334,16.2298103 C348.485776,16.9170621 351.636416,19.4340028 351.636416,19.4340028 L351.636416,30.6709909 L351.636416,30.6709909 Z" id="path9471"></path>
            <path d="M381.023946,31.8134326 L380.515203,31.268986 C380.104637,31.6349238 379.417385,32.3667994 379.060372,32.3667994 C378.507006,32.3667994 376.998622,30.9476766 376.998622,30.9476766 L376.998622,17.4704334 L379.006824,15.5514878 L378.373125,14.864236 L377.087878,16.0066777 L373.116107,12.6686092 L372.839421,12.6686092 L368.956906,16.7385578 L369.322844,17.2829998 C369.501348,17.1491194 369.778034,16.9170621 370.054719,16.9170621 C370.376033,16.9170621 371.929037,18.0595038 371.929037,18.0595038 L371.929037,30.8137961 L369.822662,32.5899365 C368.778397,32.0008616 367.127212,30.2157964 367.127212,30.2157964 L367.127212,17.3276282 C367.127212,16.8724337 367.725212,16.5957526 367.725212,16.5957526 L367.725212,16.1405581 L363.610635,12.6686092 L363.333949,12.6686092 L359.317554,17.0598673 L359.72812,17.6489376 C360.138682,17.2829998 360.272562,17.0598673 360.6385,17.0598673 C361.004438,17.0598673 362.057627,18.1576806 362.057627,18.1576806 L362.057627,31.5010434 L359.995876,33.3218121 L360.6385,34.0090594 L362.191508,32.5899365 L366.716646,36.6152568 L366.993332,36.6152568 L371.786231,32.1793704 L371.884413,32.1793704 L371.884413,33.0094229 L376.088242,36.6152568 L376.355998,36.6152568 L381.023946,31.8134326 L381.023946,31.8134326 Z" id="path9473"></path>
            <path d="M389.242384,6.63508667 L389.242384,6.22452054 C387.510872,4.85894625 385.815059,2.84182375 385.815059,2.84182375 L385.404497,2.84182375 C384.038919,4.85894625 382.119978,6.26914888 382.119978,6.26914888 L382.119978,6.67971501 C383.717609,7.92033359 385.547303,9.97315968 385.547303,9.97315968 L385.957864,9.97315968 C387.323439,8.14346617 389.242384,6.63508667 389.242384,6.63508667 Z M392.036011,31.9562378 L391.580821,31.3582381 C391.170255,31.7241759 390.572259,32.3221756 390.206322,32.3221756 C389.340566,32.3221756 388.376628,31.268986 388.376628,31.268986 L388.376628,17.2829998 L390.527631,15.18555 L389.929636,14.5429265 L388.242748,16.2298103 L384.217427,12.6239809 L383.949667,12.6239809 L379.745837,16.9170621 L380.290284,17.5150572 L381.02216,16.8278099 C382.075349,17.5150572 383.307043,18.7913793 383.307043,18.7913793 L383.307043,31.8669811 C383.307043,32.3221756 382.485915,32.5453082 382.485915,32.5453082 L382.485915,32.9558743 L387.234186,36.6152568 L387.510872,36.6152568 L392.036011,31.9562378 L392.036011,31.9562378 Z" id="path9475"></path>
            <path d="M409.76528,13.2666044 L409.220834,12.9899187 C408.488958,14.1323604 407.480397,14.3644177 406.471835,14.3644177 C404.784947,14.3644177 403.410448,12.6686092 403.410448,12.6686092 L402.999882,12.6686092 L399.983123,16.1405581 L396.05598,12.6686092 L395.734666,12.6686092 L391.620093,17.0598673 L392.173465,17.6043139 C392.584026,17.2383761 392.807159,16.9616904 393.173101,16.9616904 C393.726468,17.1491194 394.913538,18.202309 394.913538,18.202309 L394.913538,31.7688043 C394.913538,32.0901183 394.181662,32.4560561 394.181662,32.4560561 L394.181662,32.8666176 L399.072739,36.6152568 L399.349424,36.6152568 L405.284765,31.268986 L404.695695,30.6709909 C404.285129,31.0369287 402.589316,32.5006799 402.223378,32.5006799 C401.72356,32.5006799 399.983123,31.2243577 399.983123,31.2243577 L399.983123,17.1491194 L400.670375,17.1491194 C401.812817,18.2915611 402.955258,18.7467556 404.231576,18.7467556 C406.382583,18.7467556 408.899524,15.1409216 409.76528,13.2666044 L409.76528,13.2666044 Z" id="path9477"></path>
            <path d="M422.287511,20.6657012 L422.287511,20.2997588 L416.851988,12.4454721 L416.298616,12.4454721 L407.159083,19.0234412 L407.159083,19.4340028 C407.159083,19.4340028 408.12302,19.7999406 408.12302,20.1212546 L408.12302,30.6263626 C408.12302,30.9030482 407.248339,31.1351056 407.248339,31.1351056 L407.248339,31.5456717 L413.737052,36.6152568 L414.10299,36.6152568 L421.234326,30.3050531 L420.591702,29.5820977 L416.753811,32.7773655 C415.754174,32.1347421 413.192605,29.9391108 413.192605,29.9391108 L413.192605,26.3332814 L422.287511,20.6657012 L422.287511,20.6657012 Z M417.628492,22.406138 L413.192605,25.2800918 L413.192605,16.8278099 L413.603171,16.5064959 L417.628492,22.406138 Z" id="path9479"></path>
            <path d="M439.697253,13.2666044 L439.152806,12.9899187 C438.420931,14.1323604 437.41237,14.3644177 436.403808,14.3644177 C434.71692,14.3644177 433.342421,12.6686092 433.342421,12.6686092 L432.931855,12.6686092 L429.915096,16.1405581 L425.987952,12.6686092 L425.666638,12.6686092 L421.552066,17.0598673 L422.105437,17.6043139 C422.515999,17.2383761 422.739132,16.9616904 423.105074,16.9616904 C423.658441,17.1491194 424.845511,18.202309 424.845511,18.202309 L424.845511,31.7688043 C424.845511,32.0901183 424.113635,32.4560561 424.113635,32.4560561 L424.113635,32.8666176 L429.004711,36.6152568 L429.281397,36.6152568 L435.216738,31.268986 L434.627668,30.6709909 C434.217102,31.0369287 432.521289,32.5006799 432.155351,32.5006799 C431.655533,32.5006799 429.915096,31.2243577 429.915096,31.2243577 L429.915096,17.1491194 L430.602348,17.1491194 C431.744789,18.2915611 432.887231,18.7467556 434.163549,18.7467556 C436.314556,18.7467556 438.831497,15.1409216 439.697253,13.2666044 L439.697253,13.2666044 Z" id="path9481"></path>
        </g>
    </g>
</svg>