<?xml version="1.0" encoding="UTF-8"?>
<svg width="38px" height="40px" viewBox="0 0 38 40" version="1.1" xmlns="http://www.w3.org/2000/svg" xmlns:xlink="http://www.w3.org/1999/xlink">
    <!-- Generator: Sketch 61.2 (89653) - https://sketch.com -->
    <title>Logo/Icon</title>
    <desc>Created with Sketch.</desc>
    <g id="Web" stroke="none" stroke-width="1" fill="none" fill-rule="evenodd">
        <g id="Mobile---Collapsed" transform="translate(-262.000000, -9.000000)">
            <g id="Logo/Icon" transform="translate(263.000000, 9.000000)">
                <g id="Group" transform="translate(0.000000, 14.224058)" stroke="#30226D" stroke-width="1.31097305">
                    <ellipse id="Oval" fill="#F7B500" cx="17.7636848" cy="21.9100197" rx="11.1432709" ry="2.80258748"></ellipse>
                    <path d="M0,4.79985747 C0.708411377,14.8196929 6.62210706,19.8431453 17.741087,19.8702147 C28.860067,19.8971397 34.7784069,14.8736873 35.4961065,4.79985747" id="Path" fill="#FFFFFF"></path>
                    <ellipse id="Oval" cx="17.7572284" cy="4.24427525" rx="17.8947821" ry="4.89976177"></ellipse>
                    <path d="M17.8883257,7.21035177 C11.0332065,7.21035177 2.97600729,5.55910648 2.97600729,4.26066241 C2.97600729,2.96221834 11.0332065,1.31097305 17.8883257,1.31097305 C24.7687974,1.31097305 32.8006442,2.95014665 32.8006442,4.26066241 C32.8006442,5.57117818 24.7687974,7.21035177 17.8883257,7.21035177 Z" id="Oval-Copy" fill="#F7B500"></path>
                </g>
                <path d="M17.3617084,15.4771485 C20.3281258,17.1160666 21.8113345,19.0581211 21.8113345,21.3033121" id="Path-2" stroke="#30226D" stroke-width="1.31097305"></path>
                <path d="M17.6736123,15.5426972 C14.6453066,16.3470136 12.71925,18.0924221 11.8954425,20.7789228" id="Path-3" stroke="#30226D" stroke-width="1.31097305"></path>
                <path d="M20.2955584,16.525927 C17.2672527,17.3302433 15.3411961,19.0756519 14.5173886,21.7621526" id="Path-3-Copy" stroke="#30226D" stroke-width="1.31097305"></path>
                <path d="M21.2296095,18.9066986 C19.8111193,19.3393174 18.6880394,20.1709629 17.8603699,21.401635" id="Path-3-Copy-2" stroke="#30226D" stroke-width="1.31097305"></path>
                <path d="M6.40110282,16.7451035 C7.10113211,17.2356669 7.376077,18.3720213 7.2259375,20.1541668" id="Path-4" stroke="#30226D" stroke-width="1.31097305"></path>
                <path d="M9.01292391,16.113655 C9.62556553,17.025184 9.8568166,18.3720213 9.7066771,20.1541668" id="Path-4-Copy" stroke="#30226D" stroke-width="1.31097305"></path>
                <path d="M11.6392041,15.7669405 C12.2518458,16.5802589 12.4830968,17.7819842 12.3329573,19.3721164" id="Path-4-Copy-2" stroke="#30226D" stroke-width="1.31097305" transform="translate(12.008245, 17.569528) rotate(-10.000000) translate(-12.008245, -17.569528) "></path>
                <path d="M21.4818152,18.9066986 C23.6707233,17.1782801 25.8777845,16.3846896 28.1029988,16.525927" id="Path-5" stroke="#30226D" stroke-width="1.31097305"></path>
                <path d="M21.4818152,21.4058849 C26.356623,18.7722126 29.906634,17.5259951 32.1318482,17.6672325" id="Path-5-Copy" stroke="#30226D" stroke-width="1.31097305"></path>
                <path d="M23.2155375,-0.491614893 L25.4086499,-0.491614893 C25.698262,-0.491614893 25.9330391,-0.256837843 25.9330391,0.0327743262 C25.9330391,0.0385988513 25.932942,0.0444229721 25.932748,0.0502442641 L25.3122208,18.6660616 C25.3027989,18.9487164 25.0709344,19.1729808 24.7881226,19.1729808 L23.8360647,19.1729808 C23.5532529,19.1729808 23.3213884,18.9487164 23.3119666,18.6660616 L22.6914393,0.0502442641 C22.6817909,-0.239207143 22.9086161,-0.481675428 23.1980675,-0.491323809 C23.2038888,-0.491517852 23.2097129,-0.491614893 23.2155375,-0.491614893 Z" id="Rectangle-Copy" fill="#30226D" transform="translate(24.312094, 9.340683) rotate(30.000000) translate(-24.312094, -9.340683) "></path>
                <path d="M26.5977495,2.26142851 L28.7908619,2.26142851 C29.080474,2.26142851 29.3152511,2.49620556 29.3152511,2.78581773 C29.3152511,2.79164225 29.315154,2.79746638 29.31496,2.80328767 L28.6944328,21.419105 C28.6850109,21.7017598 28.4531464,21.9260242 28.1703346,21.9260242 L27.2182767,21.9260242 C26.9354649,21.9260242 26.7036004,21.7017598 26.6941786,21.419105 L26.0736513,2.80328767 C26.0640029,2.51383626 26.2908281,2.27136798 26.5802795,2.26171959 C26.5861008,2.26152555 26.5919249,2.26142851 26.5977495,2.26142851 Z" id="Rectangle-Copy-2" fill="#30226D" transform="translate(27.694306, 12.093726) rotate(50.000000) translate(-27.694306, -12.093726) "></path>
                <path d="M2.33595167,25.9081049 C7.47873906,27.4375734 12.6215265,28.2023077 17.7643138,28.2023077 C22.9071012,28.2023077 28.0498886,27.4375734 33.192676,25.9081049 C30.6705503,30.9143696 25.5277629,33.4277241 17.7643138,33.4481684 C10.1086086,33.5146971 4.96582119,31.0013425 2.33595167,25.9081049 Z" id="Path-6" fill="#F7B500"></path>
                <path d="M1.32488372,25.1773921 C12.9369287,28.9047242 23.8704078,28.9047242 34.125321,25.1773921" id="Path-7" stroke="#30226D" stroke-width="1.31097305"></path>
            </g>
        </g>
    </g>
</svg>